<?xml version="1.0" standalone="no"?><!DOCTYPE svg PUBLIC "-//W3C//DTD SVG 1.1//EN" "http://www.w3.org/Graphics/SVG/1.1/DTD/svg11.dtd"><svg t="1776180934167" class="icon" viewBox="0 0 1024 1024" version="1.1" xmlns="http://www.w3.org/2000/svg" p-id="50935" xmlns:xlink="http://www.w3.org/1999/xlink" width="200" height="200"><path d="M512 99.555556a270.222222 270.222222 0 1 1-270.222222 270.222222A270.222222 270.222222 0 0 1 512 99.555556z m0 71.111111a199.111111 199.111111 0 1 0 199.111111 199.111111 199.111111 199.111111 0 0 0-199.111111-199.111111z" fill="#FFD9EC" p-id="50936"></path><path d="M698.595556 241.777778C625.777778 241.777778 556.942222 311.466667 512 363.662222 467.057778 311.324444 398.222222 241.777778 325.404444 241.777778 192.995556 241.777778 85.333333 343.04 85.333333 467.626667c0 74.24 38.542222 126.435556 69.546667 168.248889 90.168889 121.6 316.728889 272.924444 326.257778 279.324444a56.177778 56.177778 0 0 0 61.724444 0c9.528889-6.4 236.088889-157.724444 326.257778-279.324444C900.124444 594.062222 938.666667 541.866667 938.666667 467.626667 938.666667 343.04 831.004444 241.777778 698.595556 241.777778z" fill="#FF7DBB" p-id="50937"></path><path d="M512 469.333333a56.888889 56.888889 0 0 1 23.04 108.942223l23.466667 82.346666a28.444444 28.444444 0 0 1 1.137777 7.822222 28.444444 28.444444 0 0 1-28.444444 28.444445h-38.4a29.724444 29.724444 0 0 1-7.822222-1.137778 28.444444 28.444444 0 0 1-19.484445-35.128889l23.466667-82.346666A56.888889 56.888889 0 0 1 512 469.333333z" fill="#FCFCFC" p-id="50938"></path></svg>