<?xml version="1.0" standalone="no"?><!DOCTYPE svg PUBLIC "-//W3C//DTD SVG 1.1//EN" "http://www.w3.org/Graphics/SVG/1.1/DTD/svg11.dtd"><svg t="1776180796677" class="icon" viewBox="0 0 1024 1024" version="1.1" xmlns="http://www.w3.org/2000/svg" p-id="47639" xmlns:xlink="http://www.w3.org/1999/xlink" width="200" height="200"><path d="M258.618 415.636V904c0 8.837-7.163 16-16 16h-12.93C159.392 920 102 862.539 102 792.156V521.487c0-67.293 54.49-121.85 121.703-121.85h18.915c8.837 0 16 7.163 16 16z m296.277-309.64l1.996 0.998c65.409 18.607 104.073 86.633 86.788 152.813l-33.917 119.854c-2.785 8.46 1.99 17.017 9.975 18.976 1.602 0.76 3.02 0.956 3.99 1h169.587C864.609 399.593 922 457.06 922 527.48c0 10.637-1.207 20.771-3.99 30.962l-42.896 177.783C849.3 844.073 752.933 920 641.684 920h-288.22c-17.672 0-32-14.327-32-32V406.45a32 32 0 0 1 11.817-24.832c8.023-6.521 13.728-12.168 17.113-16.94 4.418-7.205 8-14.93 9.976-22.971l40.9-146.82c18.044-66.817 86.673-106.497 153.625-88.892z" fill="#e76e1c" p-id="47640"></path></svg>