<?xml version="1.0" standalone="no"?><!DOCTYPE svg PUBLIC "-//W3C//DTD SVG 1.1//EN" "http://www.w3.org/Graphics/SVG/1.1/DTD/svg11.dtd"><svg t="1776180756364" class="icon" viewBox="0 0 1024 1024" version="1.1" xmlns="http://www.w3.org/2000/svg" p-id="42314" xmlns:xlink="http://www.w3.org/1999/xlink" width="200" height="200"><path d="M351.344 53.184l5.776 110.272 106.672 28.592-103.104 39.568 5.776 110.288-69.488-85.824-103.104 39.584 60.144-92.624-69.488-85.824L291.2 145.792l60.144-92.608z m587.472 667.472L846.208 780.8l28.576 106.672-85.824-69.488-92.624 60.144 39.584-103.104-85.824-69.488 110.288 5.776 39.568-103.104 28.592 106.672 110.272 5.776z" fill="#FFD140" p-id="42315"></path><path d="M893.648 286.224L735.264 127.84 281.104 582l158.384 158.384 454.16-454.16z" fill="#FFFFFF" p-id="42316"></path><path d="M470.048 621.36L406.608 684.8l-91.52-91.536 10.4-10.4 144.56 38.496z m127.936-310.992l144.576 38.496-193.84 193.824-144.56-38.496 57.584-57.584 144.56 38.496 78.656-78.656-144.56-38.496 57.584-57.584z m78.672-78.672l81.232-81.232 140.208 140.208-221.44-58.976z" fill="#F73B2F" p-id="42317"></path><path d="M821.216 270.192l-78.656 78.672-144.576-38.496 78.672-78.672 144.56 38.496z m-280.816 97.76l144.56 38.496-78.656 78.656-144.56-38.496 78.656-78.656z m8.32 174.736l-78.672 78.672-144.56-38.496 78.672-78.672 144.56 38.496z" fill="#FFD140" p-id="42318"></path><path d="M406.608 684.8l33.936 33.936-8.72 8.736-33.952-33.936 8.736-8.736z m86.64-57.264l-23.2-6.176 23.2 6.176z" fill-opacity=".149" p-id="42319"></path><path d="M440.544 718.736L406.608 684.8l63.44-63.44 23.2 6.176 30.416 8.096-83.12 83.104zM602.32 556.96l-53.6-14.272 57.584-57.584 53.6 14.272-57.584 57.584z m136.256-136.24l-53.616-14.272 57.6-57.584 53.6 14.272-57.584 57.584z" fill="#D23228" p-id="42320"></path><path d="M796.16 363.136l-53.6-14.272 78.656-78.672 53.072 14.144 0.336 0.336-78.464 78.464z" fill="#D9B236" p-id="42321"></path><path d="M874.288 284.336l-53.072-14.144 19.472-19.472 33.6 33.616z" fill="#D23228" p-id="42322"></path><path d="M659.904 499.376l-53.6-14.272 78.656-78.656 53.616 14.272-78.672 78.656z m-136.24 136.256l-53.616-14.272 78.672-78.672 53.6 14.272-78.656 78.672z" fill="#D9B236" p-id="42323"></path><path d="M999.76 23.76L682.336 69.664l271.536 271.536 45.888-317.44z" fill="#FFFFFF" p-id="42324"></path><path d="M954.352 69.184l38.752-5.6-45.232 271.616-27.952-27.952 34.432-238.064z" fill="#D73636" p-id="42325"></path><path d="M938.688 177.44l-18.768 129.808L716.272 103.6l238.08-34.416-15.664 108.256z" fill="#F73B2F" p-id="42326"></path></svg>