<?xml version="1.0" standalone="no"?><!DOCTYPE svg PUBLIC "-//W3C//DTD SVG 1.1//EN" "http://www.w3.org/Graphics/SVG/1.1/DTD/svg11.dtd"><svg t="1776267921000" class="icon" viewBox="0 0 1024 1024" version="1.1" xmlns="http://www.w3.org/2000/svg" p-id="23176" xmlns:xlink="http://www.w3.org/1999/xlink" width="200" height="200"><path d="M502.7 465.2c-0.3-2.5-0.5-4.6-0.7-6.9-0.2-2.3-0.3-4.5-0.4-6.8-0.2-4.5-0.2-9-0.1-13.5 0.3-9 1.1-18.1 2.5-27.1s3.5-18.1 6.4-27c2.8-8.9 6.4-17.8 10.9-26.3s9.7-16.8 15.8-24.5c6.2-7.7 13.1-14.9 20.8-21.4 15.3-12.9 33.3-22.7 52-29.6l0.4-0.2c13.4-5 28.3 1.9 33.3 15.3 5 13.4-1.9 28.3-15.3 33.3-1.5 0.6-3.2 1-4.8 1.3-14.5 2.4-28.6 6.8-41.4 13.9-6.4 3.5-12.4 7.8-18.2 12.6-5.7 4.8-10.9 10.4-15.7 16.4-4.8 6-9.1 12.6-12.9 19.6-3.8 7-7.1 14.4-9.9 22.1-2.8 7.7-5.1 15.6-6.9 23.7-0.9 4.1-1.7 8.1-2.3 12.3-0.3 2.1-0.6 4.1-0.8 6.2-0.2 2-0.4 4.2-0.5 6v0.3c-0.2 3.4-3.1 5.9-6.5 5.7-3-0.3-5.3-2.6-5.7-5.4z" fill="#FFC229" p-id="23177"></path><path d="M536.6 499c1.5-1.8 2.9-3.3 4.3-4.9 1.4-1.6 2.9-3.1 4.4-4.6 3-3 6.1-5.9 9.3-8.7 6.4-5.6 13.1-10.8 20.3-15.6 14.3-9.5 30.3-17.5 47.9-22.3 8.8-2.3 17.9-4.1 27.3-4.7 2.3-0.3 4.7-0.2 7-0.3l3.5-0.1c1.2 0 2.4 0.1 3.5 0.1 2.4 0.1 4.7 0.2 7.1 0.4l7.1 0.8c18.9 2.6 37.2 9.3 53.8 18.3 12.6 6.8 17.2 22.5 10.4 35.1-6.8 12.6-22.5 17.2-35.1 10.4-1.3-0.7-2.6-1.5-3.7-2.4l-0.2-0.2-4-3.2c-1.3-1-2.6-2.2-4-3.1-2.8-1.9-5.5-4-8.4-5.6-5.7-3.6-11.8-6.3-18.1-8.7l-4.8-1.6c-1.6-0.5-3.3-0.9-4.9-1.3-0.8-0.2-1.6-0.4-2.5-0.6l-2.5-0.5c-1.7-0.3-3.4-0.7-5.1-0.9-6.8-1-13.9-1.1-21-0.7-14.3 0.8-28.9 4.6-43.1 10.3-7.1 2.9-14 6.3-20.8 10.1-3.4 1.9-6.7 3.9-9.9 6.1l-4.8 3.3c-1.6 1.1-3.2 2.3-4.5 3.4l-0.3 0.2c-2.6 2.1-6.5 1.6-8.5-1-1.7-2.1-1.6-5.3 0.3-7.5z" fill="#FFE045" p-id="23178"></path><path d="M533.9 539.7c2.2 0.7 4 1.3 6 2 1.9 0.7 3.9 1.4 5.8 2.1 3.8 1.5 7.6 3.1 11.3 4.8 7.5 3.5 14.8 7.3 21.9 11.7 14.2 8.7 27.7 19.3 39.4 32.3 5.9 6.5 11.4 13.5 16.1 21.2 4.7 7.6 9 15.8 12.2 24.4 0.4 1.1 0.9 2.1 1.3 3.2l1.1 3.3c0.7 2.2 1.5 4.4 2.1 6.6 1.1 4.5 2.4 9 3.1 13.6 1.8 9.2 2.3 18.5 2.6 27.8 0.4 14.3-10.9 26.2-25.2 26.6-14.3 0.4-26.2-10.9-26.6-25.2 0-1.8 0.1-3.5 0.4-5.2l0.1-0.5c1.2-6.3 2.3-12.8 2.4-19.3 0.3-3.3 0-6.5 0-9.7-0.1-1.6-0.3-3.2-0.4-4.9l-0.2-2.4c-0.1-0.8-0.3-1.6-0.4-2.4-0.9-6.5-2.7-12.9-5-19.3-2.2-6.4-5.3-12.6-8.8-18.7-7-12.2-16.4-23.6-27.2-33.8-5.4-5.1-11.2-10-17.2-14.5-3-2.2-6.1-4.5-9.3-6.5-1.6-1-3.2-2.1-4.8-3-1.6-1-3.3-2-4.8-2.8l-0.3-0.2c-2.9-1.6-4-5.3-2.4-8.3 1.1-2.6 4.1-3.7 6.8-2.9zM462.7 492.9c-1.4-1.5-3-3.2-4.6-4.7-1.6-1.6-3.3-3.1-4.9-4.7-3.3-3.1-6.8-6-10.3-8.8-7-5.7-14.3-10.9-21.9-15.6-7.5-4.7-15.3-8.9-23.2-12.5-7.9-3.6-16.1-6.4-24.2-8.6-8.1-2.2-16.3-3.6-24.5-4-8.1-0.5-16.2-0.4-24 0.9-1 0.1-2 0.2-2.9 0.4l-2.9 0.6c-1.9 0.4-3.9 0.7-5.8 1.2-3.8 1.1-7.6 2-11.3 3.5-7.4 2.5-14.5 6.2-21.4 9.9l-0.6 0.3c-12.6 6.8-28.3 2.1-35.1-10.5-6.8-12.6-2.1-28.3 10.5-35.1 1.3-0.7 2.7-1.3 4.1-1.8 10.3-3.4 20.6-6.5 31.4-8.2 5.3-1 10.8-1.4 16.1-1.9 2.7-0.2 5.4-0.2 8.1-0.3l4-0.1c1.4 0 2.7 0.1 4.1 0.2 10.8 0.3 21.4 2 31.7 4.5s20.1 6.1 29.4 10.4c9.3 4.3 18.1 9.4 26.4 15 8.3 5.7 16 11.8 23.3 18.4 7.3 6.6 14.1 13.6 20.4 20.9 3.1 3.7 6.2 7.4 9.2 11.2 1.5 1.9 2.9 3.9 4.3 5.8 1.4 2 2.7 3.9 4.2 6.1 1.8 2.8 1 6.6-1.8 8.4-2.5 1.6-5.8 1.1-7.7-1l-0.1 0.1z" fill="#FFC229" p-id="23179"></path><path d="M451.1 381.9c-0.8-3-1.8-6.3-2.9-9.5-1.1-3.2-2.2-6.3-3.5-9.5-2.5-6.3-5.2-12.4-8.2-18.4-6-11.9-12.9-23.2-20.7-33.7-3.9-5.2-8-10.2-12.3-15-4.3-4.7-8.8-9.3-13.5-13.5-9.3-8.5-19.4-15.8-29.9-22.1-12.3-7.4-16.4-23.3-9-35.6 7.4-12.3 23.3-16.4 35.6-9 1.8 1.1 3.4 2.3 4.8 3.7l0.5 0.5c11.2 11 21.2 23 29.8 35.7 4.3 6.4 8.2 12.9 11.9 19.5 3.6 6.7 6.9 13.4 9.8 20.3 5.8 13.7 10.4 27.8 13.7 42 1.6 7.1 3 14.2 4 21.4 0.5 3.6 0.9 7.2 1.3 10.8 0.3 3.7 0.6 7.1 0.6 11.1 0.1 3.4-2.6 6.1-6 6.2-2.9 0.1-5.3-1.9-6-4.5v-0.4zM357.9 534.4c-3 0.5-6.5 1.1-9.7 1.8-3.3 0.7-6.5 1.5-9.8 2.4-6.5 1.8-12.9 3.9-19.1 6.2-12.5 4.6-24.5 10.4-35.7 17-5.6 3.3-11 6.9-16.2 10.6-5.2 3.8-10.2 7.8-14.9 11.9-9.4 8.4-17.8 17.6-25.2 27.4-8.6 11.5-24.9 13.8-36.4 5.1-11.5-8.6-13.8-24.9-5.1-36.4 1.2-1.6 2.6-3.1 4.2-4.4l0.5-0.4c12.1-10 25.1-18.6 38.7-25.8 6.8-3.6 13.7-6.8 20.7-9.7 7-2.8 14.1-5.4 21.2-7.6 14.3-4.3 28.7-7.4 43.2-9.1 7.2-0.9 14.5-1.5 21.7-1.7 3.6-0.1 7.2-0.1 10.9-0.1 3.7 0.1 7.2 0.2 11.1 0.6 3.4 0.3 5.8 3.2 5.5 6.6-0.2 2.9-2.4 5.1-5.1 5.5l-0.5 0.1zM671.2 555.1c3.8 0.6 7.2 1.3 10.7 2.1 3.5 0.8 6.9 1.7 10.4 2.7 6.9 1.9 13.6 4.3 20.3 6.9 13.4 5.2 26.4 11.8 38.9 19.7 12.5 7.9 24.3 17.1 35.2 27.5 10.9 10.5 20.8 22.2 29.6 35l0.3 0.5c8.1 11.8 5.1 28-6.7 36.2-11.8 8.1-28 5.1-36.2-6.7-1.2-1.7-2.2-3.7-2.9-5.6-4.2-11.2-9.6-22.1-16.1-32.6-6.6-10.4-14.3-20.3-23.1-29.4-8.8-9.1-18.6-17.6-29.3-25.1-5.3-3.8-10.8-7.3-16.6-10.6-2.9-1.6-5.8-3.2-8.7-4.7-2.9-1.5-6-2.9-8.8-4l-0.4-0.2c-3.1-1.3-4.6-4.9-3.3-8 1.3-2.7 4-4.1 6.7-3.7z" fill="#CE111B" p-id="23180"></path><path d="M498.9 610.9c1.8 15.2 3.7 30.5 5.4 45.8 1.7 15.4 3.1 30.9 4.1 46.4 2.1 31.1 2.7 62.3 3 93.3 0.1 14.3-11.4 26-25.7 26.1-14.3 0.1-26-11.4-26.1-25.7 0-1.8 0.2-3.8 0.6-5.5 6.2-29.7 12.1-59.5 16.5-89.4 2.2-15 4.2-30 5.7-45.1 1.6-15.2 3-30.4 4.4-45.7 0.3-3.4 3.3-5.8 6.7-5.5 2.9 0.3 5.1 2.5 5.4 5.3zM634 393.6c3.2-2.3 6.1-4.1 9.3-6 3.1-1.9 6.2-3.7 9.4-5.4 6.4-3.5 12.9-6.6 19.6-9.5 13.4-5.8 27.4-10.4 41.9-13.9 7.3-1.7 14.7-3.1 22.1-4.1 7.5-1 15.1-1.7 22.7-2 15.3-0.6 30.9 0.4 46.4 2.9l0.5 0.1c14.2 2.3 23.8 15.6 21.5 29.8-2.3 14.2-15.6 23.8-29.8 21.5-2-0.3-4.1-0.9-5.9-1.7-11.3-4.7-23.2-8.5-35.6-11-6.2-1.2-12.5-2.2-18.9-2.8-6.4-0.6-12.8-1-19.4-1-13 0-26.3 1-39.4 3.3-6.6 1.1-13.1 2.5-19.6 4.3-3.3 0.9-6.5 1.8-9.7 2.8-3.2 1-6.5 2.2-9.3 3.3l-0.3 0.1c-3.1 1.2-6.7-0.3-7.9-3.4-0.8-2.8 0.2-5.7 2.4-7.3z" fill="#FF2528" p-id="23181"></path><path d="M471.1 546.5c-1.8 0.5-3.9 1.2-5.9 1.9-2 0.7-4 1.4-6 2.2-4 1.5-7.8 3.2-11.7 4.9-7.7 3.5-15.1 7.5-22.1 11.9-14.1 8.8-26.7 19.3-36.7 31.4-10.1 12-17.2 25.5-21.3 39.6-2 7.1-3.4 14.2-3.9 21.6-0.4 3.6-0.4 7.3-0.4 11-0.1 1.8 0.1 3.7 0.2 5.5l0.3 5.5 0.1 1c0.8 14.3-10.1 26.5-24.4 27.3-14.3 0.8-26.5-10.1-27.3-24.4-0.1-1.6 0-3.3 0.2-4.9l1-7.6c0.4-2.5 0.6-5 1.2-7.5 1-5 2-10 3.5-14.9 2.6-9.9 6.5-19.5 11.1-28.6 9.3-18.2 22.5-34.1 37.6-46.4 15.1-12.5 31.9-21.6 49.2-28.3 8.6-3.4 17.4-6.1 26.3-8.3 4.4-1.1 8.9-2.1 13.4-2.9 2.2-0.4 4.5-0.8 6.8-1.1 2.3-0.3 4.5-0.6 7-0.8 3.3-0.3 6.3 2.1 6.6 5.5 0.3 3-1.6 5.6-4.4 6.4h-0.4z" fill="#FFE045" p-id="23182"></path><path d="M473.4 218.8m-18.1 0a18.1 18.1 0 1 0 36.2 0 18.1 18.1 0 1 0-36.2 0Z" fill="#FF2528" p-id="23183"></path><path d="M822.2 571.5m-16.5 0a16.5 16.5 0 1 0 33 0 16.5 16.5 0 1 0-33 0Z" fill="#FFC229" p-id="23184"></path><path d="M402.2 800.8m-13.3 0a13.3 13.3 0 1 0 26.6 0 13.3 13.3 0 1 0-26.6 0Z" fill="#FF2528" p-id="23185"></path><path d="M828 332.3m-13.3 0a13.3 13.3 0 1 0 26.6 0 13.3 13.3 0 1 0-26.6 0Z" fill="#FF2528" p-id="23186"></path><path d="M226.9 677.4m-12.6 0a12.6 12.6 0 1 0 25.2 0 12.6 12.6 0 1 0-25.2 0Z" fill="#FFC229" p-id="23187"></path></svg>