<?xml version="1.0" standalone="no"?><!DOCTYPE svg PUBLIC "-//W3C//DTD SVG 1.1//EN" "http://www.w3.org/Graphics/SVG/1.1/DTD/svg11.dtd"><svg t="1776267342632" class="icon" viewBox="0 0 1024 1024" version="1.1" xmlns="http://www.w3.org/2000/svg" p-id="9864" xmlns:xlink="http://www.w3.org/1999/xlink" width="200" height="200"><path d="M858.6 274.8H305.4c-52.7 0-90.3 42.2-90.3 94.2v360c0 53.3 37.6 96.7 90.3 96.7h69.2l-2.7 102.5c-0.3 10.4 5.4 20.2 14.6 25.1 4 2.2 8.5 3.2 12.9 3.2 5.7 0 11.3-1.8 16-5.2l175.4-125.7h267.8c52.7 0 100.8-43.4 100.8-96.7v-360c-0.1-51.8-48.1-94.1-100.8-94.1z m45.6 454.1c0 22.5-23.8 41.6-45.7 41.6H582c-5.8 0-11.4 1.8-16 5.2l-137.5 98.5 2-75.4c0.2-7.5-2.6-14.6-7.8-20-5.2-5.3-12.3-8.3-19.7-8.3h-97.6c-21.9 0-35.1-19-35.1-41.6V369.1c0-21.9 12.5-39.2 35.1-39.2h553.1c22.6 0 45.7 17.2 45.7 39.2v359.8zM153.8 123.3H707c22.6 0 45.7 17.2 45.7 39.2v16c0 15.3 12.4 27.5 27.5 27.5 15.2 0 27.5-12.4 27.5-27.5v-16c0-52-48.1-94.2-100.8-94.2H153.8c-52.7 0-90.3 42.2-90.3 94.2v360c0 26.5 8.1 49.9 28.2 67.8 5.3 4.6 9.1 6.9 15.6 6.9 7.6 0 16.5-3.2 22-9.3 10.1-11.4 10.3-28.8-1-38.9-8.2-7.3-9.6-16-9.6-26.5v-360c0-21.9 12.4-39.2 35.1-39.2z m221.4 330.5h110.3c7.6 0 13.8-6.1 13.8-13.8 0-7.6-6.1-13.8-13.8-13.8H375.2c-7.6 0-13.8 6.1-13.8 13.8 0.1 7.7 6.2 13.8 13.8 13.8z m165.4 0h137.8c7.6 0 13.8-6.1 13.8-13.8 0-7.6-6.1-13.8-13.8-13.8H540.6c-7.6 0-13.8 6.1-13.8 13.8 0.1 7.7 6.2 13.8 13.8 13.8z m248.2-27.5h-55.1c-7.6 0-13.8 6.1-13.8 13.8 0 7.6 6.1 13.8 13.8 13.8h55.1c7.6 0 13.8-6.1 13.8-13.8-0.1-7.7-6.3-13.8-13.8-13.8z m-413.6 96.4h55.1c7.6 0 13.8-6.1 13.8-13.8 0-7.6-6.1-13.8-13.8-13.8h-55.1c-7.6 0-13.8 6.1-13.8 13.8 0.1 7.7 6.2 13.8 13.8 13.8z m110.3-27.5c-7.6 0-13.8 6.1-13.8 13.8 0 7.6 6.1 13.8 13.8 13.8h110.3c7.6 0 13.8-6.1 13.8-13.8 0-7.6-6.1-13.8-13.8-13.8H485.5z m303.3 0H650.9c-7.6 0-13.8 6.1-13.8 13.8 0 7.6 6.1 13.8 13.8 13.8h137.8c7.6 0 13.8-6.1 13.8-13.8 0-7.7-6.2-13.8-13.7-13.8zM375.2 605.4H513c7.6 0 13.8-6.1 13.8-13.8s-6.1-13.8-13.8-13.8H375.2c-7.6 0-13.8 6.1-13.8 13.8 0.1 7.5 6.2 13.8 13.8 13.8zM706 577.7H568.2c-7.6 0-13.8 6.1-13.8 13.8 0 7.6 6.1 13.8 13.8 13.8H706c7.6 0 13.8-6.1 13.8-13.8 0-7.5-6.1-13.8-13.8-13.8z m82.8 0h-27.5c-7.6 0-13.8 6.1-13.8 13.8 0 7.6 6.1 13.8 13.8 13.8h27.5c7.6 0 13.8-6.1 13.8-13.8-0.1-7.5-6.3-13.8-13.8-13.8z m-358.4 68.9h-55.1c-7.6 0-13.8 6.1-13.8 13.8 0 7.6 6.1 13.8 13.8 13.8h55.1c7.6 0 13.8-6.1 13.8-13.8 0-7.6-6.2-13.8-13.8-13.8z m151.6 0h-96.5c-7.6 0-13.8 6.1-13.8 13.8 0 7.6 6.1 13.8 13.8 13.8H582c7.6 0 13.8-6.1 13.8-13.8 0-7.6-6.2-13.8-13.8-13.8z m0 0" fill="#ffffff" p-id="9865"></path></svg>