<?xml version="1.0" standalone="no"?><!DOCTYPE svg PUBLIC "-//W3C//DTD SVG 1.1//EN" "http://www.w3.org/Graphics/SVG/1.1/DTD/svg11.dtd"><svg t="1776267966926" class="icon" viewBox="0 0 1024 1024" version="1.1" xmlns="http://www.w3.org/2000/svg" p-id="25937" xmlns:xlink="http://www.w3.org/1999/xlink" width="200" height="200"><path d="M844.992762 0.00561H178.816415A173.907089 173.907089 0 0 0 3.506849 175.315175V631.120045a173.907089 173.907089 0 0 0 175.309566 175.309565H844.992762A173.907089 173.907089 0 0 0 1020.302327 631.120045V175.315175A178.114518 178.114518 0 0 0 844.992762 0.00561zM683.707962 911.615349h-350.61913a55.397823 55.397823 0 0 0-56.099061 56.099061 51.891631 51.891631 0 0 0 56.099061 56.099061h350.61913a56.099061 56.099061 0 1 0 0-112.198122z" fill="#FF84AC" p-id="25938"></path><path d="M312.051684 427.760949a391.29095 391.29095 0 0 0-56.099061-35.061913 327.478268 327.478268 0 0 0 35.061913-70.123826v-35.061913h-35.061913a178.114518 178.114518 0 0 0-14.024765-49.086678l-35.061913 14.024765 14.024765 35.061913h-49.086678v35.061913h84.148591a305.739882 305.739882 0 0 1-91.160974 105.185739l14.024766 42.074296c14.024765-7.012383 28.04953-21.037148 42.074295-28.049531v133.23527h35.061913v-140.247652a123.417934 123.417934 0 0 1 35.061913 28.04953z" fill="#FFFFFF" p-id="25939"></path><path d="M459.311719 525.934305l-14.024765 7.012383c-7.012383 0-7.012383 0-7.012383-7.012383V413.736184h28.04953V259.463766H312.051684v154.272418h28.04953V420.748566a146.558796 146.558796 0 0 1-63.111443 119.210505l28.04953 28.04953a185.126901 185.126901 0 0 0 70.123827-147.260035v-7.012382h21.037147v119.210504a25.945816 25.945816 0 0 0 7.012383 21.037148 36.46439 36.46439 0 0 0 28.04953 14.024765h28.049531c14.024765 0 21.037148 0 28.04953-14.024765s7.012383-28.04953 14.024765-70.123826l-35.061913-7.012383a293.117593 293.117593 0 0 0-7.012382 49.086678z m-28.049531-147.260034H347.113597V294.525679h84.148591zM662.670814 308.550445v84.148591h154.272418V308.550445z m119.210505 49.086678H697.732727v-21.037148h84.148592zM648.646049 568.008601h35.061913v-14.024765h119.210505v14.024765h35.061913V406.723801H648.646049z m112.198122-126.222887h42.074296v28.049531h-42.074296z m0 56.099061h42.074296v28.04953h-42.074296z m-77.136209-56.099061h42.074296v28.049531h-42.074296z m0 56.099061h42.074296v28.04953h-42.074296z" fill="#FFFFFF" p-id="25940"></path><path d="M641.633667 259.463766v28.049531h-35.061913a178.114518 178.114518 0 0 0-14.024766-49.086678l-35.061913 14.024765 14.024766 35.061913h-42.074296v35.061913h77.136209a280.495304 280.495304 0 0 1-84.148592 105.185739l14.024765 35.061913 35.061914-35.061913v140.247652h35.061913v-140.247652a96.77088 96.77088 0 0 1 21.037147 28.04953l14.024766-28.04953c-14.024765-14.024765-28.04953-21.037148-42.074296-35.061913a371.656278 371.656278 0 0 0 42.074296-70.123826v-28.049531h196.346713v-35.061913z" fill="#FFFFFF" p-id="25941"></path></svg>