<?xml version="1.0" standalone="no"?><!DOCTYPE svg PUBLIC "-//W3C//DTD SVG 1.1//EN" "http://www.w3.org/Graphics/SVG/1.1/DTD/svg11.dtd"><svg t="1776267763460" class="icon" viewBox="0 0 1257 1024" version="1.1" xmlns="http://www.w3.org/2000/svg" p-id="15498" xmlns:xlink="http://www.w3.org/1999/xlink" width="245.5078125" height="200"><path d="M997.754139 347.521939l-0.600003-0.462859s0-0.445717-0.58286-0.445717l-70.148963-53.503156a8.297189 8.297189 0 0 0-4.765741-1.817153h-106.989169a8.297189 8.297189 0 0 0-4.748598 1.817153l-70.748966 53.948873s-0.58286 0-0.58286 0.462859l-0.600004 0.445717c0 0.46286-0.600003 1.354293-0.600003 2.26287a5.468602 5.468602 0 0 0 1.200007 2.725729l124.817839 136.012188a8.400047 8.400047 0 0 0 4.765741 1.817153 8.297189 8.297189 0 0 0 4.748598-1.817153l124.834982-136.012188a3.720021 3.720021 0 0 0 0-5.434316z m-78.463295-47.160263l59.417475 45.34311h-53.486013l-29.72588-45.34311z m-36.857348 0l29.72588 45.34311h-87.977634l29.72588-45.34311z m-65.383222 0h23.777275l-29.72588 45.34311h-53.537442z m-62.417491 54.411732h55.286022l41.605947 105.634876z m113.537776 115.612074l-45.771684-115.612074h90.85765z m16.045804-9.977198l41.605946-105.634876h55.286023z" fill="#684C4B" p-id="15499"></path><path d="M919.273701 300.378819l59.451761 45.325967h-53.503156l-29.72588-45.325967h23.777275z" fill="#EBDD9E" p-id="15500"></path><path d="M999.108433 352.57911h-77.589005l-38.811645-59.177473h38.828788z m-70.148963-13.714362h29.400164l-41.365945-31.611605h-8.742906z" fill="#684C4B" p-id="15501"></path><path d="M882.433496 300.378819l29.708737 45.325967h-87.977634l29.72588-45.325967h28.543017z" fill="#EBDD9E" p-id="15502"></path><path d="M924.89659 352.57911h-113.452062l38.691645-59.177473h36.000201z m-87.977634-13.714362h62.503206l-20.708687-31.560176h-21.102975z" fill="#684C4B" p-id="15503"></path><path d="M817.033131 300.378819h23.777275l-29.708737 45.325967h-53.503156l59.434618-45.325967z" fill="#EBDD9E" p-id="15504"></path><path d="M814.82169 352.57911h-77.571862l77.469004-59.177473h38.845931z m-36.857349-13.714362h29.417307l20.691544-31.560176h-8.70862z" fill="#684C4B" p-id="15505"></path><path d="M754.61564 354.773408h55.286022l41.605947 105.634876-96.891969-105.634876z" fill="#EBDD9E" p-id="15506"></path><path d="M871.513435 492.397033l-132.532168-144.515092h75.617564z m-101.229137-130.732158l61.234628 66.754659-26.29729-66.754659z" fill="#684C4B" p-id="15507"></path><path d="M868.153416 470.385482l-45.771684-115.612074h90.960508l-45.188824 115.612074z" fill="#EBDD9E" p-id="15508"></path><path d="M868.204845 489.191301l-55.954598-141.30936h111.172049z m-35.691628-127.526426l35.623056 89.914788 35.143053-89.914788z" fill="#684C4B" p-id="15509"></path><path d="M884.216363 460.408284l41.605946-105.634876h55.286023l-96.891969 105.634876z" fill="#EBDD9E" p-id="15510"></path><path d="M864.210537 492.397033l56.914603-144.515092h75.634708z m66.291798-130.732158l-26.297289 66.754659 61.25177-66.754659z" fill="#684C4B" p-id="15511"></path><path d="M868.170559 460.151139a199.663971 199.663971 0 1 0 199.681114 199.663972 199.646828 199.646828 0 0 0-199.681114-199.663972z m0 360.002009a160.389466 160.389466 0 1 1 160.389466-160.372323 160.389466 160.389466 0 0 1-160.389466 160.406609z" fill="#F0D0D3" p-id="15512"></path><path d="M868.170559 865.976261a206.212579 206.212579 0 1 1 206.212579-206.16115 206.435438 206.435438 0 0 1-206.212579 206.16115z m0-399.3108a193.115363 193.115363 0 1 0 193.115363 193.14965 193.321079 193.321079 0 0 0-193.115363-193.115364z m0 360.002009a166.920931 166.920931 0 1 1 166.920931-166.903788 167.109504 167.109504 0 0 1-166.920931 166.955217z m0-320.744647a153.840858 153.840858 0 1 0 153.823716 153.840859 154.012288 154.012288 0 0 0-153.823716-153.78943zM911.233656 245.937944l47.722552-86.738198 23.297273 12.817785-47.72598 86.738199zM745.533303 187.12733l23.576703-12.291497L813.60454 260.195738l-23.578417 12.289783zM855.416202 171.618101h26.605863v66.497513h-26.605863z" fill="#684C4B" p-id="15513"></path><path d="M467.076892 699.17533V1009.874207h776.764335V699.17533H467.076892z" fill="#F0D0D3" p-id="15514"></path><path d="M1257.984163 1024h-805.033064V685.032394h805.033064zM481.202685 995.748414h748.529892V713.28398H481.202685z" fill="#684C4B" p-id="15515"></path><path d="M470.248338 699.158187a127.337853 127.337853 0 0 1 123.943549-98.897694h522.551488a127.337853 127.337853 0 0 1 123.943548 98.863408z" fill="#EBDD9E" p-id="15516"></path><path d="M1116.743375 614.420572a113.143489 113.143489 0 0 1 104.743441 70.611822h-732.004085a113.143489 113.143489 0 0 1 104.743442-70.611822h522.517202m0-28.234444H594.191887a141.652219 141.652219 0 0 0-141.240788 141.223645 139.749351 139.749351 0 0 0 14.125793 60.994627v-75.12042h776.781478v75.12042a139.749351 139.749351 0 0 0 14.125793-60.994627 141.652219 141.652219 0 0 0-141.240788-141.223645z" fill="#684C4B" p-id="15517"></path><path d="M128.572146 65.040363C46.285973 88.354779-2.965731 170.57238 18.857248 247.732811l112.269198 395.385064c21.891551 77.143288 107.006311 121.183533 189.292485 97.851974l27.17158-7.714329L155.743726 57.326034z" fill="#F0D0D3" p-id="15518"></path><path d="M275.572966 760.941389a170.932382 170.932382 0 0 1-78.703296-19.080106c-39.257362-20.297256-67.268947-54.034587-78.857583-95.040531L5.760032 251.469975c-11.622922-40.9888-5.520031-84.429043 17.142953-122.314969a173.143823 173.143823 0 0 1 101.863426-77.280431l40.337367-11.451492 199.372542 702.261061-40.337368 11.451493a178.286709 178.286709 0 0 1-48.565986 6.805752zM146.315102 74.228986l-14.005792 3.977165a145.852242 145.852242 0 0 0-85.869051 65.040363c-18.857248 31.320175-23.897276 67.11466-14.348651 100.749133l112.200626 395.350778c9.548625 33.651616 32.674468 61.4232 65.14322 78.206151a145.869385 145.869385 0 0 0 107.22917 10.285771l14.005793-3.977165z" fill="#684C4B" p-id="15519"></path><path d="M155.280867 57.36032l122.246396-39.925937 191.572498 675.072339-122.229254 39.94308L155.280867 57.36032z" fill="#EBDD9E" p-id="15520"></path><path d="M268.252926 34.851623l5.005742 17.657241 173.503825 611.351983 5.657175 19.731539-96.189109 31.423033L172.046674 66.274656l96.206252-31.423033M286.8016 0L138.532202 48.428842l3.617163 12.754357 191.829642 675.929486 3.617163 12.754357 148.269398-48.463128-12.788642-45.05168-173.486683-611.317697L286.8016 0z" fill="#684C4B" p-id="15521"></path></svg>