<?xml version="1.0" standalone="no"?><!DOCTYPE svg PUBLIC "-//W3C//DTD SVG 1.1//EN" "http://www.w3.org/Graphics/SVG/1.1/DTD/svg11.dtd"><svg t="1776267703395" class="icon" viewBox="0 0 1024 1024" version="1.1" xmlns="http://www.w3.org/2000/svg" p-id="12670" xmlns:xlink="http://www.w3.org/1999/xlink" width="200" height="200"><path d="M592.6 150.4c-18.9-8.3-38-8.6-56.9-1.1 5.4-20.1 0.3-42.4-15.4-58.1-23.4-23.4-61.4-23.4-84.7 0-5.2 5.2-9.2 11.1-12.1 17.5-0.6-0.6-1.1-1.2-1.7-1.8-23.4-23.4-61.4-23.4-84.7 0-6.8 6.8-11.6 14.8-14.4 23.3-21.1-7.5-45.6-2.8-62.4 14.1-5.2 5.2-9.2 11.1-12.1 17.5-0.6-0.6-1.1-1.2-1.7-1.8-23.4-23.4-61.4-23.4-84.7 0s-23.4 61.4 0 84.7c0.6 0.6 1.2 1.2 1.8 1.7-6.3 2.9-12.3 6.9-17.5 12.1-16.8 16.8-21.5 41.3-14.1 62.4-8.5 2.8-16.5 7.6-23.3 14.4-23.4 23.4-23.4 61.4 0 84.7 0.6 0.6 1.2 1.2 1.8 1.7-6.3 2.9-12.3 6.9-17.5 12.1-23.4 23.4-23.4 61.4 0 84.7 15.9 15.9 38.6 21 58.8 15.2-6.5 18.9-6.1 38.1 1.4 57.1 26.7 67.6 134.3 110.8 140.6 113.3h0.2c3.6 1.4 7.8 0.7 10.7-2.2 3.9-3.9 3.9-10.2 0-14.1-1-1-2.2-1.8-3.4-2.2-1.1-0.4-105.7-42-129.4-102.1-5.1-13-6-25.7-2.6-38.4 2.9 6.8 7.1 13.2 12.7 18.8 23.4 23.4 61.4 23.4 84.7 0 14.7-14.7 20.2-35.2 16.3-54.3 19 3.8 39.5-1.6 54.3-16.3 0.6-0.6 1.2-1.2 1.8-1.9 23.4 16.8 56.3 14.7 77.3-6.3 14.7-14.7 20.2-35.2 16.3-54.3 19 3.8 39.5-1.6 54.3-16.3 21-21 23.1-53.9 6.3-77.3 0.6-0.6 1.3-1.2 1.9-1.8 14.7-14.7 20.2-35.2 16.3-54.3 19 3.8 39.5-1.6 54.3-16.3 23.4-23.4 23.4-61.4 0-84.7-5.9-5.9-12.7-10.3-20-13.2 13-4.5 25.9-3.9 39 1.8 35.4 15.4 71.9 68 105.8 151.9 26.1 64.8 41.2 125.5 41.3 126.1l9.7-2.4-9.5 3.1c13.9 42.2 29.5 137.8 34.4 169.1-4.8 1.5-9.3 4.1-13.1 7.9L714 663.8c-1.8-12.4-5-29.3-10.5-48.6-10.4-36.3-31.2-88.1-71.8-128.8-3.9-3.9-10.2-3.9-14.1 0-3.9 3.9-3.9 10.2 0 14.1 37.5 37.5 56.9 85.7 66.6 119.6 8.2 28.7 11.1 52.3 11.9 61.6l-22.4 22.4c-11.4-3-40.6-11.2-77.1-27.1-43.3-18.8-106.2-52.5-159.8-106.1-3.9-3.9-10.2-3.9-14.1 0-3.9 3.9-3.9 10.2 0 14.1 56 56 121.4 91 166.4 110.5 28.9 12.5 53.1 20.4 68.3 24.8l-30.8 30.8c-4 4-6.6 8.7-8.1 13.7-31.1-3.1-128.4-14-167.4-34.3h-0.1c-3.8-2-8.5-1.4-11.7 1.8-3.9 3.9-3.9 10.2 0 14.1 0.7 0.7 1.6 1.3 2.4 1.8 43.9 22.9 149 34.1 177.6 36.8 1.5 4 3.9 7.8 7.1 11l7.7 7.7c9.4 9.4 23.4 11.7 35 6.7l87 131.7c0.4 0.6 0.8 1.1 1.3 1.6 3.9 3.9 10.2 3.9 14.1 0l87.2-87.2 87.2-87.2c3.9-3.9 3.9-10.2 0-14.1-0.5-0.5-1-0.9-1.6-1.3l-131.7-87c4.9-11.6 2.7-25.5-6.7-35l-7.7-7.7c-3.3-3.3-7.3-5.8-11.4-7.3-4.2-27.3-20.4-129.4-35.6-175.6-1.3-5-16.5-64.7-42-128.2-36.6-90-75.7-144.9-116.6-162.7zM160 272.5c9.4-9.4 22.3-13.1 34.5-11.2 0.2 0 0.5 0.1 0.7 0.1 2.8 0.2 5.7-0.7 7.9-2.9 3.9-3.9 3.9-10.2 0-14.1-1.4-1.4-3-2.2-4.8-2.7-0.2-0.1-0.5-0.1-0.7-0.1-8.1-1.3-15.8-5-22-11.2-15.6-15.6-15.6-40.9 0-56.4s40.9-15.6 56.4 0c6.2 6.2 9.9 13.9 11.2 22 0 0.3 0.1 0.5 0.2 0.8 0.4 1.7 1.3 3.4 2.6 4.7 3.9 3.9 10.2 3.9 14.1 0 2.2-2.2 3.1-5.1 2.9-7.9 0-0.2-0.1-0.5-0.1-0.7-1.9-12.2 1.8-25.1 11.2-34.5 12.2-12.2 30.4-14.8 45.2-7.9 0.3 14.9 6.1 29.7 17.5 41.1 0.6 0.6 1.2 1.2 1.8 1.7-6.3 2.9-12.3 6.9-17.5 12.1-9.5 9.5-15.1 21.4-16.9 33.7-16.6-1.1-33.6 4.7-46.2 17.4-12.7 12.7-18.4 29.6-17.4 46.2-12.3 1.8-24.2 7.4-33.7 16.9-5.2 5.2-9.2 11.1-12.1 17.5-0.6-0.6-1.1-1.2-1.7-1.8-11.4-11.4-26.2-17.2-41.1-17.5-6.8-14.9-4.2-33.1 8-45.3z m164.8 204.6c-0.6 0.7-1.2 1.3-1.8 2-15.6 15.6-40.9 15.6-56.4 0-3.9-3.9-10.2-3.9-14.1 0-3.9 3.9-3.9 10.2 0 14.1 15.5 15.6 15.5 40.9 0 56.4-15.6 15.6-40.9 15.6-56.4 0-12.5-12.5-15-31.4-7.3-46.3 1.9-3.8 1.3-8.5-1.8-11.6-3.9-3.9-10.2-3.9-14.1 0-0.7 0.7-1.2 1.4-1.7 2.2 0 0.1-0.1 0.1-0.1 0.2 0 0 0 0.1-0.1 0.1-1.9 3.6-4.3 7.1-7.3 10.1-15.6 15.6-40.9 15.6-56.4 0s-15.6-40.9 0-56.4c9.4-9.4 22.3-13.1 34.5-11.2 0.2 0 0.5 0.1 0.7 0.1 2.8 0.2 5.7-0.7 7.9-2.9 3.9-3.9 3.9-10.2 0-14.1-1.4-1.4-3-2.2-4.8-2.7-0.2-0.1-0.5-0.1-0.7-0.1-8.1-1.3-15.8-5-22-11.2-15.6-15.6-15.6-40.9 0-56.4 5.5-5.5 12.2-9 19.3-10.6 13-3 27.1 0.6 37.2 10.6 3.4 3.4 6 7.2 7.9 11.3 1.6 3.4 2.7 7 3.3 10.7 0 0.3 0.1 0.5 0.2 0.8 0.4 1.7 1.3 3.4 2.6 4.7 3.9 3.9 10.2 3.9 14.1 0 2.2-2.2 3.1-5.1 2.9-7.9 0-0.2-0.1-0.5-0.1-0.7-0.6-3.8-0.6-7.8-0.1-11.6 1.1-8.4 4.9-16.4 11.3-22.8 6.1-6.1 13.6-9.7 21.4-11.1 0.9-0.2 1.8-0.3 2.7-0.4 2.9 6.9 7.2 13.3 12.8 18.9 0.6 0.6 1.2 1.2 1.8 1.7-6.3 2.9-12.3 6.9-17.5 12.1-1.1 1.1-2.2 2.3-3.2 3.5-5.4 6.4-9.3 13.6-11.6 21.2-6.3 20.5-1.3 43.8 14.9 60 19.4 19.4 49 22.7 71.8 9.8 0.9 9.7 4.4 19.2 10.2 27.5z m101.5-140.5c5.9-3 12.5-4.4 19-4.3 2.1 0.4 4.3 0.6 6.4 0.7 7.7 1.4 15 5.1 20.9 11 1.3 1.3 2.5 2.7 3.6 4.2 11.8 15.6 10.6 38.1-3.6 52.3-15.6 15.6-40.9 15.6-56.4 0-3.9-3.9-10.2-3.9-14.1 0s-3.9 10.2 0 14.1c15.5 15.6 15.5 40.9 0 56.4-14.2 14.2-36.7 15.4-52.3 3.6-1.4-1.1-2.8-2.3-4.2-3.6-5.9-5.9-9.6-13.3-11-20.9 0-2.2-0.3-4.3-0.7-6.4-0.1-6.5 1.3-13 4.3-19 1.9-3.8 1.3-8.5-1.8-11.6-3.9-3.9-10.2-3.9-14.1 0-0.7 0.7-1.2 1.4-1.7 2.2 0 0.1-0.1 0.1-0.1 0.2 0 0 0 0.1-0.1 0.1-0.6 1.1-1.2 2.2-1.9 3.3-1.5 2.4-3.3 4.7-5.4 6.8-15.6 15.6-40.9 15.6-56.4 0-8-8-11.9-18.5-11.7-29 0.1-7.1 2.2-14.1 6-20.4 1.6-2.5 3.4-4.9 5.6-7.1 8.8-8.8 20.9-12.7 32.4-11.4 0.7 0.1 1.4 0.2 2 0.3 0.2 0 0.5 0.1 0.7 0.1 2.8 0.2 5.7-0.7 7.9-2.9 3.9-3.9 3.9-10.2 0-14.1-1.4-1.4-3-2.2-4.8-2.7-0.2-0.1-0.5-0.1-0.7-0.1-8.1-1.3-15.8-5-22-11.2a39.47 39.47 0 0 1-11.4-23.9c-1.3-11.6 2.5-23.7 11.4-32.6 8.9-8.9 20.9-12.7 32.6-11.4 8.7 0.9 17.2 4.7 23.9 11.4 6.2 6.2 9.9 13.9 11.2 22 0 0.3 0.1 0.5 0.2 0.8 0.4 1.7 1.3 3.4 2.6 4.7 3.9 3.9 10.2 3.9 14.1 0 2.2-2.2 3.1-5.1 2.9-7.9 0-0.2-0.1-0.5-0.1-0.7-0.1-0.7-0.2-1.4-0.3-2-1.2-11.6 2.6-23.6 11.4-32.4 2.2-2.2 4.5-4 7.1-5.6 6.2-3.9 13.3-5.9 20.4-6 10.5-0.2 21 3.7 29 11.7 15.6 15.6 15.6 40.9 0 56.4-2.1 2.1-4.4 3.9-6.8 5.4-1.1 0.7-2.2 1.3-3.3 1.9 0 0-0.1 0-0.1 0.1-0.1 0-0.1 0.1-0.2 0.1-0.8 0.4-1.6 1-2.2 1.7-3.9 3.9-3.9 10.2 0 14.1 3.4 2.9 8.1 3.5 11.8 1.6z m78.8-149.7c15-7.6 33.8-5.2 46.3 7.3 15.6 15.6 15.6 40.9 0 56.4-15.6 15.6-40.9 15.6-56.4 0-3.9-3.9-10.2-3.9-14.1 0-3.9 3.9-3.9 10.2 0 14.1 15.5 15.6 15.5 40.9 0 56.4-0.6 0.6-1.3 1.2-2 1.8-8.3-5.9-17.8-9.3-27.6-10.4 12.9-22.8 9.6-52.4-9.8-71.8-16.2-16.2-39.5-21.2-60-14.9-7.6 2.3-14.8 6.2-21.2 11.6-1.2 1-2.4 2.1-3.5 3.2-5.2 5.2-9.2 11.1-12.1 17.5-0.6-0.6-1.1-1.2-1.7-1.8-5.6-5.6-12-9.8-18.9-12.8 0.1-0.9 0.2-1.8 0.4-2.7 1.3-7.9 5-15.4 11.1-21.4 6.4-6.4 14.5-10.2 22.8-11.3 3.9-0.5 7.8-0.5 11.6 0.1 0.2 0 0.5 0.1 0.7 0.1 2.8 0.2 5.7-0.7 7.9-2.9 3.9-3.9 3.9-10.2 0-14.1-1.4-1.4-3-2.2-4.8-2.7-0.2-0.1-0.5-0.1-0.7-0.1-3.7-0.6-7.3-1.7-10.7-3.3-4.1-1.9-7.9-4.5-11.3-7.9-10.1-10.1-13.6-24.2-10.6-37.2 1.6-7.1 5.2-13.8 10.6-19.3 15.6-15.6 40.9-15.6 56.4 0 6.2 6.2 9.9 13.9 11.2 22 0 0.3 0.1 0.5 0.2 0.8 0.4 1.7 1.3 3.4 2.6 4.7 3.9 3.9 10.2 3.9 14.1 0 2.2-2.2 3.1-5.1 2.9-7.9 0-0.2-0.1-0.5-0.1-0.7-1.9-12.2 1.8-25.1 11.2-34.5 15.6-15.6 40.9-15.6 56.4 0s15.6 40.9 0 56.4c-3 3-6.5 5.5-10.1 7.3 0 0-0.1 0-0.1 0.1-0.1 0-0.1 0.1-0.2 0.1-0.8 0.4-1.6 1-2.2 1.7-3.9 3.9-3.9 10.2 0 14.1 3.2 3.3 7.9 3.9 11.7 2z m135.3 595.2c-4.6-4.6-4.6-12 0-16.6l126.9-126.9c4.6-4.6 12-4.6 16.6 0l7.7 7.7c4.6 4.6 4.6 12 0 16.6L664.7 789.8c-4.6 4.6-12 4.6-16.6 0l-7.7-7.7z m282.5-18l-78.5 78.5-78.5 78.5-81.2-123L800 682.8l122.9 81.3z" fill="#3E3A39" p-id="12671"></path><path d="M361.9 360.2m-10 0a10 10 0 1 0 20 0 10 10 0 1 0-20 0Z" fill="#3E3A39" p-id="12672"></path><path d="M584.8 432.4m-10 0a10 10 0 1 0 20 0 10 10 0 1 0-20 0Z" fill="#3E3A39" p-id="12673"></path><path d="M372.5 722m-10 0a10 10 0 1 0 20 0 10 10 0 1 0-20 0Z" fill="#3E3A39" p-id="12674"></path><path d="M441.8 192.4m-10 0a10 10 0 1 0 20 0 10 10 0 1 0-20 0Z" fill="#3E3A39" p-id="12675"></path><path d="M195 439.2m-10 0a10 10 0 1 0 20 0 10 10 0 1 0-20 0Z" fill="#3E3A39" p-id="12676"></path><path d="M505.1 186.9c-3.8 1.9-8.5 1.3-11.6-1.9-3.9-3.9-3.9-10.2 0-14.1 0.7-0.7 1.4-1.2 2.2-1.7 0.1 0 0.1-0.1 0.2-0.1 0 0 0.1 0 0.1-0.1 3.6-1.9 7.1-4.3 10.1-7.3 15.6-15.6 15.6-40.9 0-56.4-15.6-15.6-40.9-15.6-56.4 0-9.4 9.4-13.1 22.3-11.2 34.5 0 0.2 0.1 0.5 0.1 0.7 0.2 2.8-0.7 5.8-2.9 7.9-3.9 3.9-10.2 3.9-14.1 0-1.3-1.3-2.2-3-2.6-4.7-0.1-0.3-0.1-0.5-0.2-0.8-1.3-8.1-5-15.8-11.2-22-15.6-15.6-40.9-15.6-56.4 0-5.5 5.5-9 12.2-10.6 19.3-3 13 0.6 27.1 10.6 37.2 3.4 3.4 7.2 6 11.3 7.9 3.4 1.6 7 2.7 10.7 3.3 0.2 0 0.5 0.1 0.7 0.1 1.8 0.4 3.4 1.3 4.8 2.7 3.9 3.9 3.9 10.2 0 14.1-2.2 2.2-5.1 3.1-7.9 2.9-0.2 0-0.5-0.1-0.7-0.1-3.8-0.6-7.8-0.6-11.6-0.1-8.4 1.1-16.4 4.9-22.8 11.3-6.1 6.1-9.7 13.6-11.1 21.4-0.2 0.9-0.3 1.8-0.4 2.7 6.9 2.9 13.3 7.2 18.9 12.8 0.6 0.6 1.2 1.2 1.7 1.8 2.9-6.3 6.9-12.3 12.1-17.5 1.1-1.1 2.3-2.2 3.5-3.2 6.4-5.4 13.6-9.3 21.2-11.6 20.5-6.3 43.8-1.3 60 14.9 19.4 19.4 22.7 49 9.8 71.8 9.7 1.1 19.2 4.6 27.6 10.4 0.7-0.6 1.3-1.2 2-1.8 15.6-15.6 15.6-40.9 0-56.4-3.9-3.9-3.9-10.2 0-14.1 3.9-3.9 10.2-3.9 14.1 0 15.6 15.5 40.9 15.5 56.4 0 15.6-15.6 15.6-40.9 0-56.4-12.6-12.6-31.4-15-46.4-7.4z m-56.2 12.5c-3.9 3.9-10.2 3.9-14.1 0s-3.9-10.2 0-14.1c3.9-3.9 10.2-3.9 14.1 0 3.9 3.9 3.9 10.2 0 14.1z" fill="#E285A8" p-id="12677"></path><path d="M472.7 343.9c-5.9-5.9-13.3-9.6-20.9-11-2.2 0-4.3-0.3-6.4-0.7-6.5-0.1-13 1.3-19 4.3-3.8 1.9-8.5 1.3-11.6-1.8-3.9-3.9-3.9-10.2 0-14.1 0.7-0.7 1.4-1.2 2.2-1.7 0.1 0 0.1-0.1 0.2-0.1h0.1c1.1-0.6 2.2-1.2 3.3-1.9 2.4-1.5 4.7-3.3 6.8-5.4 15.6-15.6 15.6-40.9 0-56.4-8-8-18.5-11.9-29-11.7-7.1 0.1-14.1 2.2-20.4 6-2.5 1.6-4.9 3.4-7.1 5.6-8.8 8.8-12.7 20.9-11.4 32.4 0.1 0.7 0.2 1.4 0.3 2 0 0.2 0.1 0.5 0.1 0.7 0.2 2.8-0.7 5.8-2.9 7.9-3.9 3.9-10.2 3.9-14.1 0-1.3-1.3-2.2-3-2.6-4.7-0.1-0.3-0.1-0.5-0.2-0.8-1.3-8.1-5-15.8-11.2-22a39.47 39.47 0 0 0-23.9-11.4c-11.6-1.3-23.7 2.5-32.6 11.4-8.9 8.9-12.7 20.9-11.4 32.6 0.9 8.7 4.7 17.2 11.4 23.9 6.2 6.2 13.9 9.9 22 11.2 0.2 0 0.5 0.1 0.7 0.1 1.8 0.4 3.4 1.3 4.8 2.7 3.9 3.9 3.9 10.2 0 14.1-2.2 2.2-5.1 3.1-7.9 2.9-0.2 0-0.5-0.1-0.7-0.1-0.7-0.1-1.4-0.2-2-0.3-11.6-1.2-23.6 2.6-32.4 11.4-2.2 2.2-4 4.5-5.6 7.1-3.9 6.2-5.9 13.3-6 20.4-0.2 10.5 3.7 21 11.7 29 15.6 15.6 40.9 15.6 56.4 0 2.1-2.1 3.9-4.4 5.4-6.8 0.7-1.1 1.3-2.2 1.9-3.3 0 0 0-0.1 0.1-0.1 0-0.1 0.1-0.1 0.1-0.2 0.4-0.8 1-1.6 1.7-2.2 3.9-3.9 10.2-3.9 14.1 0 3.1 3.1 3.8 7.9 1.8 11.6-3 5.9-4.5 12.5-4.3 19 0.4 2.1 0.6 4.3 0.7 6.4 1.4 7.7 5.1 15 11 20.9 1.3 1.3 2.7 2.5 4.2 3.6 15.6 11.8 38.1 10.6 52.3-3.6 15.6-15.6 15.6-40.9 0-56.4-3.9-3.9-3.9-10.2 0-14.1 3.9-3.9 10.2-3.9 14.1 0 15.6 15.5 40.9 15.5 56.4 0 14.2-14.2 15.4-36.7 3.6-52.3-1.3-1.4-2.5-2.8-3.8-4.1zM369 367.3c-3.9 3.9-10.2 3.9-14.1 0-3.9-3.9-3.9-10.2 0-14.1s10.2-3.9 14.1 0 3.9 10.1 0 14.1z" fill="#E285A8" p-id="12678"></path><path d="M193.2 335.2c0.6 0.6 1.2 1.2 1.7 1.8 2.9-6.3 6.9-12.3 12.1-17.5 9.5-9.5 21.4-15.1 33.7-16.9-1.1-16.6 4.7-33.6 17.4-46.2 12.7-12.7 29.6-18.4 46.2-17.4 1.8-12.3 7.4-24.2 16.9-33.7 5.2-5.2 11.1-9.2 17.5-12.1-0.6-0.6-1.2-1.1-1.8-1.7-11.4-11.4-17.2-26.2-17.5-41.1-14.8-6.9-33-4.3-45.2 7.9-9.4 9.4-13.1 22.3-11.2 34.5 0 0.2 0.1 0.5 0.1 0.7 0.2 2.8-0.7 5.8-2.9 7.9-3.9 3.9-10.2 3.9-14.1 0-1.3-1.3-2.2-3-2.6-4.7-0.1-0.3-0.1-0.5-0.2-0.8-1.3-8.1-5-15.8-11.2-22-15.6-15.6-40.9-15.6-56.4 0-15.6 15.6-15.6 40.9 0 56.4 6.2 6.2 13.9 9.9 22 11.2 0.2 0 0.5 0.1 0.7 0.1 1.8 0.4 3.4 1.3 4.8 2.7 3.9 3.9 3.9 10.2 0 14.1-2.2 2.2-5.1 3.1-7.9 2.9-0.2 0-0.5-0.1-0.7-0.1-12.2-1.9-25.1 1.8-34.5 11.2-12.2 12.2-14.8 30.4-7.9 45.2 14.8 0.4 29.7 6.2 41 17.6z" fill="#E285A8" p-id="12679"></path><path d="M242.6 439.8c-16.2-16.2-21.2-39.5-14.9-60 2.3-7.6 6.2-14.8 11.6-21.2 1-1.2 2.1-2.4 3.2-3.5 5.2-5.2 11.1-9.2 17.5-12.1-0.6-0.6-1.2-1.1-1.8-1.7-5.6-5.6-9.8-12-12.8-18.9-0.9 0.1-1.8 0.2-2.7 0.4-7.9 1.3-15.4 5-21.4 11.1-6.4 6.4-10.2 14.5-11.3 22.8-0.5 3.9-0.5 7.8 0.1 11.6 0 0.2 0.1 0.5 0.1 0.7 0.2 2.8-0.7 5.8-2.9 7.9-3.9 3.9-10.2 3.9-14.1 0-1.3-1.3-2.2-3-2.6-4.7-0.1-0.3-0.1-0.5-0.2-0.8-0.6-3.7-1.7-7.3-3.3-10.7-1.9-4.1-4.5-7.9-7.9-11.3-10.1-10.1-24.2-13.6-37.2-10.6-7.1 1.6-13.8 5.2-19.3 10.6-15.6 15.6-15.6 40.9 0 56.4 6.2 6.2 13.9 9.9 22 11.2 0.2 0 0.5 0.1 0.7 0.1 1.8 0.4 3.4 1.3 4.8 2.7 3.9 3.9 3.9 10.2 0 14.1-2.2 2.2-5.1 3.1-7.9 2.9-0.2 0-0.5-0.1-0.7-0.1-12.2-1.9-25.1 1.8-34.5 11.2-15.6 15.6-15.6 40.9 0 56.4 15.6 15.6 40.9 15.6 56.4 0 3-3 5.5-6.5 7.3-10.1 0 0 0-0.1 0.1-0.1 0-0.1 0.1-0.1 0.1-0.2 0.4-0.8 1-1.6 1.7-2.2 3.9-3.9 10.2-3.9 14.1 0 3.1 3.1 3.8 7.9 1.8 11.6-7.6 15-5.2 33.8 7.3 46.3 15.6 15.6 40.9 15.6 56.4 0 15.6-15.6 15.6-40.9 0-56.4-3.9-3.9-3.9-10.2 0-14.1 3.9-3.9 10.2-3.9 14.1 0 15.6 15.5 40.9 15.5 56.4 0 0.6-0.6 1.2-1.3 1.8-2-5.9-8.3-9.3-17.8-10.4-27.6-22.6 12.9-52.2 9.7-71.6-9.7z m-40.5 6.4c-3.9 3.9-10.2 3.9-14.1 0s-3.9-10.2 0-14.1c3.9-3.9 10.2-3.9 14.1 0 3.9 3.9 3.9 10.2 0 14.1z" fill="#E285A8" p-id="12680"></path><path d="M791.6 646.3l-7.7-7.7c-4.6-4.6-12-4.6-16.6 0L640.4 765.5c-4.6 4.6-4.6 12 0 16.6l7.7 7.7c4.6 4.6 12 4.6 16.6 0l126.9-126.9c4.5-4.5 4.5-12 0-16.6z" fill="#006074" p-id="12681"></path></svg>